<svg width="257" height="248" viewBox="0 0 257 248" fill="none" xmlns="http://www.w3.org/2000/svg">
<path d="M218.279 32.7782C221.567 36.0444 222.394 41.0105 220.577 45.2781L209.281 72.2821C211.533 75.8108 213.601 79.5358 215.419 83.433C217.236 87.3301 218.76 91.3087 220.015 95.3023L247.963 104.007C252.399 105.358 255.673 109.183 256.061 113.802C256.582 120.124 256.589 126.41 256.149 132.684L255.731 137.348C255.064 143.727 253.909 150.003 252.309 156.156C251.157 160.665 247.223 163.824 242.644 164.414L213.663 168.164C209.767 175.663 204.878 182.687 199.091 188.971L205.493 217.488C206.509 222.034 204.858 226.776 201.006 229.4C195.239 233.358 189.058 236.902 182.487 239.966C175.916 243.03 169.228 245.487 162.488 247.361C158.002 248.625 153.309 246.842 150.48 243.141L132.749 219.907C124.216 220.3 115.692 219.53 107.443 217.694L86.0094 237.509C82.6133 240.638 77.6441 241.576 73.4702 239.605C67.7288 236.876 62.1779 233.727 56.8627 230.137L53.0212 227.459C47.9326 223.763 43.122 219.717 38.6135 215.255C35.325 211.988 34.4988 207.022 36.3155 202.755L47.6115 175.751C45.338 172.177 43.27 168.452 41.4527 164.555C39.6355 160.657 38.1112 156.679 36.8558 152.685L8.9087 143.981C4.47182 142.629 1.19861 138.804 0.810313 134.185C0.289612 127.863 0.282402 121.577 0.72224 115.304L1.14046 110.64C1.80687 104.261 2.9626 97.984 4.56232 91.8315C5.7145 87.3221 9.64826 84.1637 14.2277 83.573L43.2085 79.8239C47.1043 72.3249 51.9937 65.3004 57.78 59.0162L51.3787 30.4997C50.3621 25.9534 52.0128 21.2116 55.8648 18.5878C61.6112 14.5841 67.7924 11.0398 74.3631 7.97578C80.9339 4.9118 87.6222 2.45499 94.3618 0.581182C98.8478 -0.683132 103.541 1.10041 106.37 4.80149L124.101 28.0352C132.634 27.642 141.158 28.4118 149.407 30.2477L170.907 10.457C174.303 7.32863 179.272 6.39069 183.446 8.36136C189.188 11.0907 194.739 14.2398 200.054 17.8298L203.895 20.5072C208.984 24.2029 213.795 28.2489 218.303 32.7117L218.279 32.7782ZM145.363 160.235C165.392 150.896 174.05 127.108 164.711 107.078C155.371 87.049 131.583 78.391 111.554 87.7309C91.5242 97.0707 82.8661 120.859 92.206 140.888C101.546 160.917 125.334 169.575 145.363 160.235Z" fill="black" fill-opacity="0.2"/>
</svg>
