<svg width="618" height="643" viewBox="0 0 618 643" fill="none" xmlns="http://www.w3.org/2000/svg">
<path d="M58 26.5001C58 26.5001 102.698 1.51701 134 1.00007C148.36 0.762924 159.92 -2.56013 170.5 5.49999C181.08 13.5601 190.317 18.3795 192.5 31.5C194.619 44.2373 191.637 41.4057 182 50C172.363 58.5943 171.198 49.1772 150 62.5C128.802 75.8228 89.9866 135.913 65 137.5C31.3377 139.639 -0.692111 113.188 0.999987 79.5C2.52481 49.1426 58 26.5001 58 26.5001Z" fill="#FFC93E" fill-opacity="0.5"/>
<path d="M173 527.5C158.6 484.7 181.333 389.167 202 371C216 374.5 248.2 381.8 265 383C286 384.5 379.527 334.022 402 352C407 356 395.5 386 396.5 405C397.5 424 404.832 447.409 415.5 476C428 509.5 456.5 559.5 473 587C489.5 614.5 487 612 456.5 612C426 612 338 522 306.5 496C299.305 490.061 294.982 485.883 292.668 483.014C278.682 489.653 260.544 491.724 258.5 512.5C255.5 543 289 566 306.5 606C324 646 313 644 277.5 642C242 640 191 581 173 527.5Z" fill="#97F6C3" fill-opacity="0.5"/>
<path d="M160.5 234C156.9 228.8 154 212.833 153 205.5C155.5 205.5 165.8 204.7 187 201.5C213.5 197.5 226.5 141.5 233 134C239.5 126.5 316 186 343.5 205.5C371 225 400 305.5 399 324C398 342.5 323.5 346 303.5 349C283.5 352 216.5 360.5 206.5 362.5C196.5 364.5 185 291 180.5 266C176 241 165 240.5 160.5 234Z" fill="#FFC93E" fill-opacity="0.5"/>
<path d="M206.189 354.504C206.189 311.73 180.973 260.568 168.364 240.333C172.388 256.682 176.09 300.715 158.707 346.062C136.977 402.745 132.551 383.047 138.989 424.856M253.27 201.339C275.804 238.457 346.465 310.363 448.834 301.037M237.174 146.884C237.174 146.884 223.492 181.055 209.006 201.339C203.044 209.688 196.934 222.462 193.715 225.057C190.496 227.652 183.253 216.432 172.791 213.801C162.328 211.17 164.34 235.107 161.121 235.107C157.902 235.107 149.854 211.608 151.866 208.173C153.878 204.738 165.334 210.227 186.07 201.339C209.006 191.507 226.041 157.47 230.333 140.854M147.037 156.314C153.992 158.777 159 155.5 161.121 149.881M151.866 201.339C134.563 176.682 100.762 134.02 101.969 96.4143C103.176 58.8087 124.101 42.7283 138.989 41.3391C153.878 39.9498 154.077 41.8549 161.552 46.1632M397.73 316.715C393.706 305.325 380.829 273.057 361.514 235.107C337.37 187.67 242.807 153.5 220.676 117.721C204.208 91.0985 183.284 58.6894 161.552 46.1632M253.27 357.623C236.282 356.962 217.488 358.157 206.189 361.338C205.519 365.224 205.143 373.318 209.006 374.605C209.271 374.693 210.096 374.867 211.421 375.073M253.27 357.623C255.148 358.126 258.34 366.647 256.086 374.605M253.27 357.623C274.207 351.947 285.806 350.673 306.386 349.866M256.086 374.605C273.771 376.082 312.217 369.653 311.215 366.068M256.086 374.605C234.569 379.11 217.605 377.588 211.421 375.073M306.386 349.866C309.386 353.276 311.215 366.068 311.215 366.068M306.386 349.866C324.547 342.873 339.629 338.701 358.697 335.464M311.215 366.068C314.752 369.209 352.51 356.57 365.538 350.527M358.697 335.464C374.554 327.846 390.862 323.288 403.363 322.343C405.778 323.415 410.043 327.891 407.79 337.218C407.554 338.191 403.363 340.44 403.363 340.44M358.697 335.464C361.246 338.12 366.182 344.85 365.538 350.527M365.538 350.527C383.291 347.971 403.363 340.44 403.363 340.44M288.278 383.449C282.645 384.789 268.963 406.765 291.9 424.856M211.421 375.073C202.568 396.625 175.607 415.146 168.364 478.323C161.121 541.5 209.006 579.227 209.006 579.227C209.006 579.227 281.224 654.449 302.362 638.724C323.5 623 312.422 606.211 291.9 584.855C271.377 563.5 245.255 517.72 271.377 498.021C297.5 478.323 372.379 461.131 390.084 413.599C404.248 375.574 403.363 340.44 403.363 340.44M397.73 413.599C404.705 442.678 415.559 488.014 435.957 532.192C449.051 560.551 483.853 584.012 475 602C466.147 619.988 426.5 604.5 397.73 576.413C368.959 548.326 319.799 504.721 302.362 493.197M116.053 86.7661C110.956 84.622 97.3011 83.55 83.4587 96.4143C69.6163 109.279 55.6934 108.475 50.4623 106.465M87.5 82C74 76.7159 66 96.4143 56.7826 94.0023M119.674 51.3893C121.016 46.0292 119.674 36.917 103.579 43.3491C83.4587 51.3893 75.0084 72.1105 61.327 76.7159C47.6455 81.3213 41.7437 73.4998 40 74.3038M40 56.2134C48.3162 57.4194 54.0838 56.7987 70.5821 46.1632C87.0803 35.5277 105.59 15.4273 125.71 16.0125C145.83 16.5977 161.983 23.6507 161.552 46.1632M180.436 51.3893C183.521 43.0811 184.621 25.6607 164.34 22.4446" stroke="black" stroke-width="4" stroke-linecap="round" stroke-linejoin="round"/>
<ellipse cx="551.754" cy="357.993" rx="63.5" ry="38" transform="rotate(58.2066 551.754 357.993)" fill="#75D9E7" fill-opacity="0.5"/>
<path d="M574.155 410.265C566.07 415.276 555.058 414.51 543.49 408.536C531.963 402.585 520.236 391.609 511.155 376.96C502.075 362.31 497.461 346.925 497.259 333.954C497.055 320.936 501.267 310.732 509.352 305.721C517.437 300.709 528.449 301.476 540.018 307.449C551.544 313.401 563.271 324.376 572.352 339.026C581.433 353.675 586.046 369.061 586.249 382.031C586.452 395.049 582.24 405.253 574.155 410.265Z" stroke="black" stroke-width="4"/>
<path d="M439 291.5C443 303.5 460 328.2 496 331" stroke="black" stroke-width="4"/>
</svg>
