<svg width="557" height="639" viewBox="0 0 557 639" fill="none" xmlns="http://www.w3.org/2000/svg">
<path d="M124.5 29.5C149.328 13.4024 163.198 1.01701 194.5 0.500072C208.86 0.262921 221.92 0.939928 232.5 9.00005C243.08 17.0602 258.817 9.37969 261 22.5001C263.119 35.2375 267.137 42.4058 257.5 51.0001C247.863 59.5943 214.5 96.0001 191 93.5001C167.5 91.0001 165.987 110.913 141 112.5C107.338 114.639 72.3731 109.188 74.0652 75.5001C75.59 45.1426 102.132 44.0026 124.5 29.5Z" fill="#daef14"/>
<path d="M246.065 523.5C231.665 480.7 254.399 385.167 275.065 367C289.065 370.5 321.265 377.8 338.065 379C359.065 380.5 452.592 330.022 475.065 348C480.065 352 468.565 382 469.565 401C470.565 420 477.897 443.409 488.565 472C501.065 505.5 529.565 555.5 546.065 583C562.565 610.5 560.065 608 529.565 608C499.065 608 411.065 518 379.565 492C372.37 486.061 368.047 481.883 365.733 479.014C351.748 485.653 333.609 487.724 331.565 508.5C328.565 539 362.065 562 379.565 602C397.065 642 386.065 640 350.565 638C315.065 636 264.065 577 246.065 523.5Z" fill="#8c64d8"/>
<path d="M233.565 230C229.965 224.8 227.065 208.833 226.065 201.5C228.565 201.5 238.865 200.7 260.065 197.5C286.565 193.5 299.565 137.5 306.065 130C312.565 122.5 389.065 182 416.565 201.5C444.065 221 473.065 301.5 472.065 320C471.065 338.5 396.565 342 376.565 345C356.565 348 289.565 356.5 279.565 358.5C269.565 360.5 258.065 287 253.565 262C249.065 237 238.065 236.5 233.565 230Z" fill="#daef14"/>
<path d="M279.255 350.504C279.255 307.73 254.038 256.568 241.429 236.334C245.453 252.682 249.155 296.715 231.772 342.062C210.043 398.745 205.616 379.047 212.055 420.856M326.335 197.339C348.869 234.458 379.974 333.544 169.501 318.343M310.239 142.884C310.239 142.884 296.558 177.055 282.071 197.339C276.109 205.688 269.999 218.462 266.78 221.057C263.561 223.652 256.318 212.432 245.856 209.801C235.394 207.17 237.405 231.107 234.186 231.107C230.967 231.107 222.919 207.608 224.931 204.173C226.943 200.738 238.399 206.227 259.135 197.339C282.071 187.507 299.106 153.47 303.398 136.854M220.102 152.314C227.058 154.777 232.065 151.5 234.186 145.882M224.931 197.339C207.628 172.682 173.827 130.02 175.034 92.4144C176.241 54.8088 197.166 38.7284 212.055 37.3391C226.943 35.9498 227.143 37.8549 234.617 42.1632M470.795 312.715C466.771 301.325 453.894 269.057 434.579 231.107C410.436 183.67 315.873 149.5 293.741 113.721C277.273 87.0986 256.35 54.6894 234.617 42.1632M326.335 353.623C309.347 352.962 290.553 354.157 279.255 357.338C278.584 361.224 278.208 369.318 282.071 370.605C282.336 370.693 283.162 370.867 284.486 371.073M326.335 353.623C328.213 354.126 331.405 362.647 329.152 370.605M326.335 353.623C347.272 347.948 358.871 346.673 379.451 345.866M329.152 370.605C346.836 372.082 385.282 365.653 384.28 362.068M329.152 370.605C307.634 375.11 290.67 373.588 284.486 371.073M379.451 345.866C382.451 349.276 384.28 362.068 384.28 362.068M379.451 345.866C397.613 338.874 412.695 334.701 431.762 331.464M384.28 362.068C387.817 365.209 425.575 352.57 438.603 346.527M431.762 331.464C447.619 323.846 463.927 319.288 476.428 318.343C478.843 319.415 483.108 323.891 480.855 333.218C480.62 334.191 476.428 336.44 476.428 336.44M431.762 331.464C434.311 334.12 439.247 340.85 438.603 346.527M438.603 346.527C456.356 343.971 476.428 336.44 476.428 336.44M361.343 379.449C355.71 380.789 342.028 402.765 364.965 420.856M284.486 371.073C275.633 392.625 248.673 411.146 241.429 474.323C234.186 537.5 282.071 575.227 282.071 575.227C282.071 575.227 354.289 650.449 375.427 634.725C396.565 619 385.487 602.211 364.965 580.855C344.443 559.5 318.32 513.72 344.443 494.021C370.565 474.323 445.444 457.131 463.149 409.599C477.314 371.574 476.428 336.44 476.428 336.44M470.795 409.599C477.77 438.678 488.624 484.014 509.022 528.192C522.116 556.551 556.918 580.012 548.065 598C539.212 615.988 499.565 600.5 470.795 572.413C442.025 544.326 392.864 500.722 375.427 489.197M189.118 82.7662C184.021 80.6221 170.366 79.5501 156.524 92.4144C142.681 105.279 128.759 104.475 123.527 102.465M160.565 78.0001C147.065 72.7159 139.065 92.4144 129.848 90.0023M192.74 47.3894C194.081 42.0292 192.74 32.917 176.644 39.3492C156.524 47.3894 148.074 68.1106 134.392 72.7159C120.711 77.3213 114.809 69.4999 113.065 70.3039M113.065 52.2135C121.381 53.4195 127.149 52.7987 143.647 42.1632C160.145 31.5278 178.656 11.4273 198.775 12.0126C218.895 12.5978 235.048 19.6507 234.617 42.1632M253.501 47.3894C256.586 39.0812 257.686 21.6608 237.405 18.4447" stroke="black" stroke-width="4" stroke-linecap="round" stroke-linejoin="round"/>
<ellipse cx="65.7537" cy="269.993" rx="63.5" ry="38" transform="rotate(-121.793 65.7537 269.993)" fill="#75D9E7"/>
<path d="M43.352 217.721C51.437 212.709 62.4494 213.476 74.0179 219.449C85.5442 225.401 97.2712 236.376 106.352 251.026C115.433 265.675 120.046 281.061 120.249 294.031C120.452 307.049 116.241 317.253 108.156 322.265C100.071 327.276 89.0581 326.51 77.4896 320.536C65.9632 314.585 54.2362 303.609 45.1554 288.96C36.0746 274.31 31.4615 258.925 31.2586 245.954C31.055 232.936 35.267 222.732 43.352 217.721Z" stroke="black" stroke-width="4"/>
<path d="M178.507 336.485C174.507 324.485 157.507 299.785 121.507 296.985" stroke="black" stroke-width="4"/>
</svg>
